# xmcd
#
# Track frame offsets:
# 150
# 7604
# 14037
# 15322
# 16682
# 18118
# 19463
# 20908
# 22326
# 23742
# 25090
# 26441
# 27800
# 29257
# 30648
# 32004
# 33401
# 34829
# 36218
# 37614
# 38982
# 40300
# 42036
# 43494
# 45036
# 46502
# 47932
# 49521
# 51194
# 52725
# 54123
# 55729
# 57361
# 58925
# 60723
# 62279
# 63846
# 65656
# 66850
# 68054
# 69291
# 70609
# 71807
# 72988
# 74226
# 75508
# 76874
# 78148
# 79379
# 80614
# 81928
# 83171
# 84457
# 85853
# 87098
# 89139
# 91651
# 93980
# 96235
# 98274
# 100339
# 103331
# 105506
# 108078
# 110291
# 112716
# 115062
# 117270
# 120040
# 122605
# 125019
# 127459
# 129561
# 131302
# 133280
# 137051
# 139897
# 141882
# 146417
# 148283
# 150817
# 153466
# 158929
# 163997
# 168634
# 174086
# 179617
# 185024
# 189932
# 195405
# 199316
# 204873
# 209727
# 214709
# 219655
# 225348
# 230850
# 236431
# 241126
#
# Disc length: 3279 seconds
#
# Revision: 0
# Processed by: cddbd v1.4PL0 Copyright (c) Steve Scherf et al.
# Submitted via: Audion 3.0.2 (http://www.panic.com/audion/)
#
DISCID=3e0ccd63
DTITLE=dos - uno
DYEAR=1900
DGENRE=
TTITLE0=1
TTITLE1=2
TTITLE2=3
TTITLE3=4
TTITLE4=5
TTITLE5=6
TTITLE6=7
TTITLE7=8
TTITLE8=9
TTITLE9=10
TTITLE10=11
TTITLE11=12
TTITLE12=13
TTITLE13=14
TTITLE14=15
TTITLE15=16
TTITLE16=17
TTITLE17=18
TTITLE18=19
TTITLE19=20
TTITLE20=21
TTITLE21=22
TTITLE22=23
TTITLE23=24
TTITLE24=25
TTITLE25=26
TTITLE26=27
TTITLE27=28
TTITLE28=29
TTITLE29=30
TTITLE30=31
TTITLE31=31
TTITLE32=33
TTITLE33=34
TTITLE34=35
TTITLE35=36
TTITLE36=37
TTITLE37=38
TTITLE38=39
TTITLE39=40
TTITLE40=41
TTITLE41=42
TTITLE42=43
TTITLE43=44
TTITLE44=45
TTITLE45=46
TTITLE46=47
TTITLE47=48
TTITLE48=49
TTITLE49=50
TTITLE50=51
TTITLE51=52
TTITLE52=53
TTITLE53=54
TTITLE54=55
TTITLE55=56
TTITLE56=57
TTITLE57=58
TTITLE58=59
TTITLE59=60
TTITLE60=61
TTITLE61=62
TTITLE62=63
TTITLE63=64
TTITLE64=65
TTITLE65=66
TTITLE66=67
TTITLE67=68
TTITLE68=69
TTITLE69=70
TTITLE70=71
TTITLE71=72
TTITLE72=7374
TTITLE73=75
TTITLE74=76
TTITLE75=77
TTITLE76=78
TTITLE77=79
TTITLE78=80
TTITLE79=81
TTITLE80=82
TTITLE81=83
TTITLE82=84
TTITLE83=85
TTITLE84=86
TTITLE85=87
TTITLE86=88
TTITLE87=89
TTITLE88=90
TTITLE89=91
TTITLE90=92
TTITLE91=93
TTITLE92=94
TTITLE93=95
TTITLE94=96
TTITLE95=97
TTITLE96=98
TTITLE97=99
TTITLE98=100
EXTD=
EXTT0=
EXTT1=
EXTT2=
EXTT3=
EXTT4=
EXTT5=
EXTT6=
EXTT7=
EXTT8=
EXTT9=
EXTT10=
EXTT11=
EXTT12=
EXTT13=
EXTT14=
EXTT15=
EXTT16=
EXTT17=
EXTT18=
EXTT19=
EXTT20=
EXTT21=
EXTT22=
EXTT23=
EXTT24=
EXTT25=
EXTT26=
EXTT27=
EXTT28=
EXTT29=
EXTT30=
EXTT31=
EXTT32=
EXTT33=
EXTT34=
EXTT35=
EXTT36=
EXTT37=
EXTT38=
EXTT39=
EXTT40=
EXTT41=
EXTT42=
EXTT43=
EXTT44=
EXTT45=
EXTT46=
EXTT47=
EXTT48=
EXTT49=
EXTT50=
EXTT51=
EXTT52=
EXTT53=
EXTT54=
EXTT55=
EXTT56=
EXTT57=
EXTT58=
EXTT59=
EXTT60=
EXTT61=
EXTT62=
EXTT63=
EXTT64=
EXTT65=
EXTT66=
EXTT67=
EXTT68=
EXTT69=
EXTT70=
EXTT71=
EXTT72=
EXTT73=
EXTT74=
EXTT75=
EXTT76=
EXTT77=
EXTT78=
EXTT79=
EXTT80=
EXTT81=
EXTT82=
EXTT83=
EXTT84=
EXTT85=
EXTT86=
EXTT87=
EXTT88=
EXTT89=
EXTT90=
EXTT91=
EXTT92=
EXTT93=
EXTT94=
EXTT95=
EXTT96=
EXTT97=
EXTT98=
PLAYORDER=
